ply
format ascii 1.0
element vertex 267
property float x
property float y
property float z
property float nx
property float ny
property float nz
property float s
property float t
property float red
property float green
property float blue
element face 500
property list uchar int vertex_index
end_header
-0.6511027812957764 0.7500889897346497 0.11589512228965759 -0.651102780090332 0.7500889883459433 0.11589512207509066 0.5280356407165527 0.7699893712997437 0.454665979416736 0.9429269016836378 0.7723095996330558
-0.46358048915863037 0.8659841418266296 0.18752224743366241 -0.4635804898293547 0.8659841430795655 0.1875222477049761 0.5611770749092102 0.8333070874214172 0.5547062880334392 0.9699479549961775 0.794034898863713
-0.525731086730957 0.8506507873535156 0 -0.5257311031389016 0.8506508139021283 0 0.5 0.8237918019294739 0.5242122469552636 0.9664302557836247 0.7353606352856507
-0.5843700766563416 0.740783154964447 0.33128830790519714 -0.5843700731135667 0.7407831504734095 0.331288305896744 0.5820820927619934 0.7655454277992249 0.49322101566159043 0.9407125575730985 0.8354397238771021
-0.7649984955787659 0.595468282699585 0.24534642696380615 -0.7649984790689994 0.5954682698485241 0.24534642166887785 0.5493939518928528 0.703033447265625 0.3772904043993367 0.9051977603304402 0.8110219658670205
-0.6848726868629456 0.554073691368103 0.4732353985309601 -0.684872688540917 0.5540736927256105 0.4732353996904098 0.5962328314781189 0.6869274377822876 0.4334999209761303 0.8947381029543591 0.8738328572997351
-0.8408147096633911 0.39697885513305664 0.36801964044570923 -0.840814691517402 0.3969788465656827 0.36801963250331676 0.5656630992889404 0.6299413442611694 0.3125277857302936 0.8534898871003038 0.8455949866174879
-0.740783154964447 0.33128830790519714 0.5843700766563416 -0.7407831504734095 0.331288305896744 0.5843700731135667 0.6063008308410645 0.6074832677841187 0.3953210197129207 0.8354397238771021 0.9024091473086985
-0.8659841418266296 0.18752224743366241 0.46358048915863037 -0.8659841430795655 0.1875222477049761 0.4635804898293547 0.5782253742218018 0.5600456595420837 0.28709458552880146 0.794034898863713 0.87129173054637
-0.7500889897346497 0.11589512228965759 0.6511027812957764 -0.7500889883459433 0.11589512207509066 0.651102780090332 0.6137752532958984 0.5369736552238464 0.3885132125717306 0.7723095996330558 0.9190092064163508
-0.8506507873535156 0 0.525731086730957 -0.8506508139021283 0 0.5257311031389016 0.5881040692329407 0.5 0.302889286216963 0.7353606352856507 0.8874823873314679
-0.36801964044570923 0.8408147096633911 0.39697885513305664 -0.36801963250331676 0.840814691517402 0.3969788465656827 0.6310219764709473 0.8179236054420471 0.5978094851436216 0.9641647633401583 0.8534898871003038
-0.4732353985309601 0.6848726868629456 0.554073691368103 -0.4732353996904098 0.684872688540917 0.5540736927256105 0.6374980211257935 0.7401422262191772 0.5501096476680366 0.9272606335288597 0.8947381029543591
-0.554073691368103 0.4732353985309601 0.6848726868629456 -0.5540736927256105 0.4732353996904098 0.684872688540917 0.6417404413223267 0.6569139957427979 0.50953030813479 0.8738328572997351 0.9272606335288597
-0.595468282699585 0.24534642696380615 0.7649984955787659 -0.5954682698485241 0.24534642166887785 0.7649984790689994 0.6447308659553528 0.5789017081260681 0.4870734826775311 0.8110219658670205 0.9464604254994079
-0.24534642696380615 0.7649984955787659 0.595468282699585 -0.24534642166887785 0.7649984790689994 0.5954682698485241 0.6877978444099426 0.7772603034973145 0.6478904298449467 0.9464604254994079 0.9051977603304402
-0.33128830790519714 0.5843700766563416 0.740783154964447 -0.331288305896744 0.5843700731135667 0.7407831504734095 0.6830698847770691 0.6986583471298218 0.6133582921546079 0.9024091473086985 0.9407125575730985
-0.39697885513305664 0.36801964044570923 0.8408147096633911 -0.3969788465656827 0.36801963250331676 0.840814691517402 0.6797953248023987 0.619964063167572 0.5851749233200025 0.8455949866174879 0.9641647633401583
-0.11589512228965759 0.6511027812957764 0.7500889897346497 -0.11589512207509066 0.651102780090332 0.7500889883459433 0.7256021499633789 0.7256932854652405 0.6958195343172199 0.9190092064163508 0.9429269016836378
-0.18752224743366241 0.46358048915863037 0.8659841418266296 -0.1875222477049761 0.4635804898293547 0.8659841430795655 0.716060221195221 0.6534355282783508 0.669848684949593 0.87129173054637 0.9699479549961775
0 0.525731086730957 0.8506507873535156 0 0.5257311031389016 0.8506508139021283 0.75 0.6762081980705261 0.7353606352856507 0.8874823873314679 0.9664302557836247
-0.3476853668689728 0.9376112818717957 0 -0.3476853616140417 0.9376112677006998 0 0.5 0.8869677186012268 0.6064804511680818 0.9861608552418001 0.7353606352856507
-0.253081738948822 0.9455305933952332 0.20474743843078613 -0.2530817410772812 0.9455306013473015 0.20474744015274587 0.6082595586776733 0.8944562077522278 0.6448794825890937 0.9879317937617073 0.7991446673546662
-0.1307990550994873 0.8965100049972534 0.42327460646629333 -0.13079905677670467 0.8965100164930716 0.42327461189388244 0.7022998929023743 0.8539058566093445 0.6905196930385386 0.9769011334914285 0.8605763701159198
7.024429673201132e-17 0.7891174554824829 0.6142423152923584 7.02442974188999e-17 0.7891174631989211 0.6142423212987682 0.75 0.7894617319107056 0.7353606352856507 0.9521399099347078 0.909889436185675
0.11589512228965759 0.6511027812957764 0.7500889897346497 0.11589512207509066 0.651102780090332 0.7500889883459433 0.7743978500366211 0.7256932854652405 0.7723095996330558 0.9190092064163508 0.9429269016836378
-0.12267321348190308 0.9924471378326416 0 -0.12267321110828816 0.9924471186296937 0 0.5 0.9608532786369324 0.6934157633481784 0.9983381382681858 0.7353606352856507
1.8152013666971938e-17 0.977348268032074 0.21163730323314667 1.8152013801795172e-17 0.9773482752912827 0.21163730480507287 0.75 0.9321204423904419 0.7353606352856507 0.9950048855652568 0.8011765670972927
0.1307990550994873 0.8965100049972534 0.42327460646629333 0.13079905677670467 0.8965100164930716 0.42327461189388244 0.7977001070976257 0.8539058566093445 0.7768956967743823 0.9769011334914285 0.8605763701159198
0.24534642696380615 0.7649984955787659 0.595468282699585 0.24534642166887785 0.7649984790689994 0.5954682698485241 0.8122021555900574 0.7772603034973145 0.8110219658670205 0.9464604254994079 0.9051977603304402
0.12267321348190308 0.9924471378326416 0 0.12267321110828816 0.9924471186296937 0 1 0.9608532786369324 0.7743997049063505 0.9983381382681858 0.7353606352856507
0.253081738948822 0.9455305933952332 0.20474743843078613 0.2530817410772812 0.9455306013473015 0.20474744015274587 0.8917404413223267 0.8944562077522278 0.8132592274970031 0.9879317937617073 0.7991446673546662
0.36801964044570923 0.8408147096633911 0.39697885513305664 0.36801963250331676 0.840814691517402 0.3969788465656827 0.8689780235290527 0.8179236054420471 0.8455949866174879 0.9641647633401583 0.8534898871003038
0.3476853668689728 0.9376112818717957 0 0.3476853616140417 0.9376112677006998 0 1 0.8869677186012268 0.8399930181576785 0.9861608552418001 0.7353606352856507
0.46358048915863037 0.8659841418266296 0.18752224743366241 0.4635804898293547 0.8659841430795655 0.1875222477049761 0.9388229250907898 0.8333070874214172 0.87129173054637 0.9699479549961775 0.794034898863713
0.525731086730957 0.8506507873535156 0 0.5257311031389016 0.8506508139021283 0 1 0.8237918019294739 0.8874823873314679 0.9664302557836247 0.7353606352856507
-0.46358048915863037 0.8659841418266296 -0.18752224743366241 -0.4635804898293547 0.8659841430795655 -0.1875222477049761 0.4388229250907898 0.8333070874214172 0.5547062880334392 0.9699479549961775 0.669848684949593
-0.253081738948822 0.9455305933952332 -0.20474743843078613 -0.2530817410772812 0.9455306013473015 -0.20474744015274587 0.3917404115200043 0.8944562077522278 0.6448794825890937 0.9879317937617073 0.6634056626502497
0 0.977348268032074 -0.21163730323314667 0 0.9773482752912827 -0.21163730480507287 0.25 0.9321204423904419 0.7353606352856507 0.9950048855652568 0.6608057472708784
0.12267321348190308 0.9924471378326416 0 0.12267321110828816 0.9924471186296937 0 0 0.9608532786369324 0.7743997049063505 0.9983381382681858 0.7353606352856507
0.253081738948822 0.9455305933952332 -0.20474743843078613 0.2530817410772812 0.9455306013473015 -0.20474744015274587 0.10825957357883453 0.8944562077522278 0.8132592274970031 0.9879317937617073 0.6634056626502497
0.3476853668689728 0.9376112818717957 0 0.3476853616140417 0.9376112677006998 0 0 0.8869677186012268 0.8399930181576785 0.9861608552418001 0.7353606352856507
0.46358048915863037 0.8659841418266296 -0.18752224743366241 0.4635804898293547 0.8659841430795655 -0.1875222477049761 0.0611770860850811 0.8333070874214172 0.87129173054637 0.9699479549961775 0.669848684949593
0.525731086730957 0.8506507873535156 0 0.5257311031389016 0.8506508139021283 0 0 0.8237918019294739 0.8874823873314679 0.9664302557836247 0.7353606352856507
-0.36801964044570923 0.8408147096633911 -0.39697885513305664 -0.36801963250331676 0.840814691517402 -0.3969788465656827 0.36897802352905273 0.8179236054420471 0.5978094851436216 0.9641647633401583 0.5851749233200025
-0.1307990550994873 0.8965100049972534 -0.42327460646629333 -0.13079905677670467 0.8965100164930716 -0.42327461189388244 0.29770010709762573 0.8539058566093445 0.6905196930385386 0.9769011334914285 0.5733920278457172
0.1307990550994873 0.8965100049972534 -0.42327460646629333 0.13079905677670467 0.8965100164930716 -0.42327461189388244 0.20229989290237427 0.8539058566093445 0.7768956967743823 0.9769011334914285 0.5733920278457172
0.36801964044570923 0.8408147096633911 -0.39697885513305664 0.36801963250331676 0.840814691517402 -0.3969788465656827 0.13102197647094727 0.8179236054420471 0.8455949866174879 0.9641647633401583 0.5851749233200025
-0.24534642696380615 0.7649984955787659 -0.595468282699585 -0.24534642166887785 0.7649984790689994 -0.5954682698485241 0.3122021555900574 0.7772603034973145 0.6478904298449467 0.9464604254994079 0.4870734826775311
0 0.7891174554824829 -0.6142423152923584 0 0.7891174631989211 -0.6142423212987682 0.25 0.7894617319107056 0.7353606352856507 0.9521399099347078 0.4764459933906166
0.24534642696380615 0.7649984955787659 -0.595468282699585 0.24534642166887785 0.7649984790689994 -0.5954682698485241 0.18779785931110382 0.7772603034973145 0.8110219658670205 0.9464604254994079 0.4870734826775311
-0.11589512228965759 0.6511027812957764 -0.7500889897346497 -0.11589512207509066 0.651102780090332 -0.7500889883459433 0.2743978500366211 0.7256932854652405 0.6958195343172199 0.9190092064163508 0.3885132125717306
0.11589512228965759 0.6511027812957764 -0.7500889897346497 0.11589512207509066 0.651102780090332 -0.7500889883459433 0.2256021350622177 0.7256932854652405 0.7723095996330558 0.9190092064163508 0.3885132125717306
0 0.525731086730957 -0.8506507873535156 0 0.5257311031389016 -0.8506508139021283 0.25 0.6762081980705261 0.7353606352856507 0.8874823873314679 0.302889286216963
-0.6511027812957764 0.7500889897346497 -0.11589512228965759 -0.651102780090332 0.7500889883459433 -0.11589512207509066 0.4719643294811249 0.7699893712997437 0.454665979416736 0.9429269016836378 0.6958195343172199
-0.5843700766563416 0.740783154964447 -0.33128830790519714 -0.5843700731135667 0.7407831504734095 -0.331288305896744 0.4179178774356842 0.7655454277992249 0.49322101566159043 0.9407125575730985 0.6133582921546079
-0.4732353985309601 0.6848726868629456 -0.554073691368103 -0.4732353996904098 0.684872688540917 -0.5540736927256105 0.36250194907188416 0.7401422262191772 0.5501096476680366 0.9272606335288597 0.50953030813479
-0.33128830790519714 0.5843700766563416 -0.740783154964447 -0.331288305896744 0.5843700731135667 -0.7407831504734095 0.3169301152229309 0.6986583471298218 0.6133582921546079 0.9024091473086985 0.3953210197129207
-0.18752224743366241 0.46358048915863037 -0.8659841418266296 -0.1875222477049761 0.4635804898293547 -0.8659841430795655 0.28393977880477905 0.6534355282783508 0.669848684949593 0.87129173054637 0.28709458552880146
-0.7649984955787659 0.595468282699585 -0.24534642696380615 -0.7649984790689994 0.5954682698485241 -0.24534642166887785 0.4506060481071472 0.703033447265625 0.3772904043993367 0.9051977603304402 0.6478904298449467
-0.6848726868629456 0.554073691368103 -0.4732353985309601 -0.684872688540917 0.5540736927256105 -0.4732353996904098 0.4037671685218811 0.6869274377822876 0.4334999209761303 0.8947381029543591 0.5501096476680366
-0.554073691368103 0.4732353985309601 -0.6848726868629456 -0.5540736927256105 0.4732353996904098 -0.684872688540917 0.3582595884799957 0.6569139957427979 0.50953030813479 0.8738328572997351 0.4334999209761303
-0.39697885513305664 0.36801964044570923 -0.8408147096633911 -0.3969788465656827 0.36801963250331676 -0.840814691517402 0.3202046751976013 0.619964063167572 0.5851749233200025 0.8455949866174879 0.3125277857302936
-0.8408147096633911 0.39697885513305664 -0.36801964044570923 -0.840814691517402 0.3969788465656827 -0.36801963250331676 0.43433690071105957 0.6299413442611694 0.3125277857302936 0.8534898871003038 0.5978094851436216
-0.740783154964447 0.33128830790519714 -0.5843700766563416 -0.7407831504734095 0.331288305896744 -0.5843700731135667 0.39369916915893555 0.6074832677841187 0.3953210197129207 0.8354397238771021 0.49322101566159043
-0.595468282699585 0.24534642696380615 -0.7649984955787659 -0.5954682698485241 0.24534642166887785 -0.7649984790689994 0.3552691340446472 0.5789017081260681 0.4870734826775311 0.8110219658670205 0.3772904043993367
-0.8659841418266296 0.18752224743366241 -0.46358048915863037 -0.8659841430795655 0.1875222477049761 -0.4635804898293547 0.42177462577819824 0.5600456595420837 0.28709458552880146 0.794034898863713 0.5547062880334392
-0.7500889897346497 0.11589512228965759 -0.6511027812957764 -0.7500889883459433 0.11589512207509066 -0.651102780090332 0.38622474670410156 0.5369736552238464 0.3885132125717306 0.7723095996330558 0.454665979416736
-0.8506507873535156 0 -0.525731086730957 -0.8506508139021283 0 -0.5257311031389016 0.41189590096473694 0.5 0.302889286216963 0.7353606352856507 0.5242122469552636
-0.7891174554824829 0.6142423152923584 0 -0.7891174631989211 0.6142423212987682 0 0.5 0.7105382680892944 0.35821879970194037 0.909889436185675 0.7353606352856507
-0.8965100049972534 0.42327460646629333 -0.1307990550994873 -0.8965100164930716 0.42327461189388244 -0.13079905677670467 0.4769423007965088 0.6391194462776184 0.2521657966970445 0.8605763701159198 0.6905196930385386
-0.9455305933952332 0.20474743843078613 -0.253081738948822 -0.9455306013473015 0.20474744015274587 -0.2530817410772812 0.45837610960006714 0.5656372904777527 0.1800881088347516 0.7991446673546662 0.6448794825890937
-0.9376112818717957 0 -0.3476853668689728 -0.9376112677006998 0 -0.3476853616140417 0.4434838593006134 0.5 0.1937678161377777 0.7353606352856507 0.6064804511680818
-0.8965100049972534 0.42327460646629333 0.1307990550994873 -0.8965100164930716 0.42327461189388244 0.13079905677670467 0.5230576992034912 0.6391194462776184 0.2521657966970445 0.8605763701159198 0.7768956967743823
-0.977348268032074 0.21163730323314667 3.6304027333943875e-17 -0.9773482752912827 0.21163730480507287 3.6304027603590344e-17 0.5 0.5678795576095581 0.10810296530569194 0.8011765670972927 0.7353606352856507
-0.9924471378326416 0 -0.12267321348190308 -0.9924471186296937 0 -0.12267321110828816 0.4804266393184662 0.5 0.04820940252361495 0.7353606352856507 0.6934157633481784
-0.9455305933952332 0.20474743843078613 0.253081738948822 -0.9455306013473015 0.20474744015274587 0.2530817410772812 0.5416238903999329 0.5656372904777527 0.1800881088347516 0.7991446673546662 0.8132592274970031
-0.9924471378326416 0 0.12267321348190308 -0.9924471186296937 0 0.12267321110828816 0.5195733308792114 0.5 0.04820940252361495 0.7353606352856507 0.7743997049063505
-0.9376112818717957 0 0.3476853668689728 -0.9376112677006998 0 0.3476853616140417 0.5565161108970642 0.5 0.1937678161377777 0.7353606352856507 0.8399930181576785
0.6511027812957764 0.7500889897346497 0.11589512228965759 0.651102780090332 0.7500889883459433 0.11589512207509066 0.9719643592834473 0.7699893712997437 0.9190092064163508 0.9429269016836378 0.7723095996330558
0.5843700766563416 0.740783154964447 0.33128830790519714 0.5843700731135667 0.7407831504734095 0.331288305896744 0.9179179072380066 0.7655454277992249 0.9024091473086985 0.9407125575730985 0.8354397238771021
0.4732353985309601 0.6848726868629456 0.554073691368103 0.4732353996904098 0.684872688540917 0.5540736927256105 0.8625019788742065 0.7401422262191772 0.8738328572997351 0.9272606335288597 0.8947381029543591
0.33128830790519714 0.5843700766563416 0.740783154964447 0.331288305896744 0.5843700731135667 0.7407831504734095 0.8169301152229309 0.6986583471298218 0.8354397238771021 0.9024091473086985 0.9407125575730985
0.18752224743366241 0.46358048915863037 0.8659841418266296 0.1875222477049761 0.4635804898293547 0.8659841430795655 0.783939778804779 0.6534355282783508 0.794034898863713 0.87129173054637 0.9699479549961775
0.7649984955787659 0.595468282699585 0.24534642696380615 0.7649984790689994 0.5954682698485241 0.24534642166887785 0.9506060481071472 0.703033447265625 0.9464604254994079 0.9051977603304402 0.8110219658670205
0.6848726868629456 0.554073691368103 0.4732353985309601 0.684872688540917 0.5540736927256105 0.4732353996904098 0.9037671685218811 0.6869274377822876 0.9272606335288597 0.8947381029543591 0.8738328572997351
0.554073691368103 0.4732353985309601 0.6848726868629456 0.5540736927256105 0.4732353996904098 0.684872688540917 0.8582595586776733 0.6569139957427979 0.8947381029543591 0.8738328572997351 0.9272606335288597
0.39697885513305664 0.36801964044570923 0.8408147096633911 0.3969788465656827 0.36801963250331676 0.840814691517402 0.8202046751976013 0.619964063167572 0.8534898871003038 0.8455949866174879 0.9641647633401583
0.8408147096633911 0.39697885513305664 0.36801964044570923 0.840814691517402 0.3969788465656827 0.36801963250331676 0.9343369007110596 0.6299413442611694 0.9641647633401583 0.8534898871003038 0.8455949866174879
0.740783154964447 0.33128830790519714 0.5843700766563416 0.7407831504734095 0.331288305896744 0.5843700731135667 0.8936991691589355 0.6074832677841187 0.9407125575730985 0.8354397238771021 0.9024091473086985
0.595468282699585 0.24534642696380615 0.7649984955787659 0.5954682698485241 0.24534642166887785 0.7649984790689994 0.8552691340446472 0.5789017081260681 0.9051977603304402 0.8110219658670205 0.9464604254994079
0.8659841418266296 0.18752224743366241 0.46358048915863037 0.8659841430795655 0.1875222477049761 0.4635804898293547 0.9217746257781982 0.5600456595420837 0.9699479549961775 0.794034898863713 0.87129173054637
0.7500889897346497 0.11589512228965759 0.6511027812957764 0.7500889883459433 0.11589512207509066 0.651102780090332 0.8862247467041016 0.5369736552238464 0.9429269016836378 0.7723095996330558 0.9190092064163508
0.8506507873535156 0 0.525731086730957 0.8506508139021283 0 0.5257311031389016 0.9118959307670593 0.5 0.9664302557836247 0.7353606352856507 0.8874823873314679
0 0.3476853668689728 0.9376112818717957 0 0.3476853616140417 0.9376112677006998 0.75 0.6130322813987732 0.7353606352856507 0.8399930181576785 0.9861608552418001
-0.20474743843078613 0.253081738948822 0.9455305933952332 -0.20474744015274587 0.2530817410772812 0.9455306013473015 0.716060221195221 0.5814441442489624 0.6634056626502497 0.8132592274970031 0.9879317937617073
-0.42327460646629333 0.1307990550994873 0.8965100049972534 -0.42327461189388244 0.13079905677670467 0.8965100164930716 0.6797953248023987 0.5417542457580566 0.5733920278457172 0.7768956967743823 0.9769011334914285
-0.6142423152923584 -7.024429673201132e-17 0.7891174554824829 -0.6142423212987682 -7.02442974188999e-17 0.7891174631989211 0.6447308659553528 0.5 0.4764459933906166 0.7353606352856507 0.9521399099347078
-0.7500889897346497 -0.11589512228965759 0.6511027812957764 -0.7500889883459433 -0.11589512207509066 0.651102780090332 0.6137752532958984 0.46302634477615356 0.3885132125717306 0.6958195343172199 0.9190092064163508
0 0.12267321348190308 0.9924471378326416 0 0.12267321110828816 0.9924471186296937 0.75 0.5391467213630676 0.7353606352856507 0.7743997049063505 0.9983381382681858
-0.21163730323314667 -1.8152013666971938e-17 0.977348268032074 -0.21163730480507287 -1.8152013801795172e-17 0.9773482752912827 0.716060221195221 0.5 0.6608057472708784 0.7353606352856507 0.9950048855652568
-0.42327460646629333 -0.1307990550994873 0.8965100049972534 -0.42327461189388244 -0.13079905677670467 0.8965100164930716 0.6797953248023987 0.45824572443962097 0.5733920278457172 0.6905196930385386 0.9769011334914285
-0.595468282699585 -0.24534642696380615 0.7649984955787659 -0.5954682698485241 -0.24534642166887785 0.7649984790689994 0.6447308659553528 0.4210982918739319 0.4870734826775311 0.6478904298449467 0.9464604254994079
0 -0.12267321348190308 0.9924471378326416 0 -0.12267321110828816 0.9924471186296937 0.75 0.46085330843925476 0.7353606352856507 0.6934157633481784 0.9983381382681858
-0.20474743843078613 -0.253081738948822 0.9455305933952332 -0.20474744015274587 -0.2530817410772812 0.9455306013473015 0.716060221195221 0.4185558259487152 0.6634056626502497 0.6448794825890937 0.9879317937617073
-0.39697885513305664 -0.36801964044570923 0.8408147096633911 -0.3969788465656827 -0.36801963250331676 0.840814691517402 0.6797953248023987 0.3800359070301056 0.5851749233200025 0.5978094851436216 0.9641647633401583
0 -0.3476853668689728 0.9376112818717957 0 -0.3476853616140417 0.9376112677006998 0.75 0.3869677484035492 0.7353606352856507 0.6064804511680818 0.9861608552418001
-0.18752224743366241 -0.46358048915863037 0.8659841418266296 -0.1875222477049761 -0.4635804898293547 0.8659841430795655 0.716060221195221 0.34656447172164917 0.669848684949593 0.5547062880334392 0.9699479549961775
0 -0.525731086730957 0.8506507873535156 0 -0.5257311031389016 0.8506508139021283 0.75 0.3237918019294739 0.7353606352856507 0.5242122469552636 0.9664302557836247
-0.8659841418266296 -0.18752224743366241 0.46358048915863037 -0.8659841430795655 -0.1875222477049761 0.4635804898293547 0.5782253742218018 0.43995434045791626 0.28709458552880146 0.669848684949593 0.87129173054637
-0.9455305933952332 -0.20474743843078613 0.253081738948822 -0.9455306013473015 -0.20474744015274587 0.2530817410772812 0.5416238903999329 0.4343627095222473 0.1800881088347516 0.6634056626502497 0.8132592274970031
-0.977348268032074 -0.21163730323314667 0 -0.9773482752912827 -0.21163730480507287 0 0.5 0.4321204423904419 0.10810296530569194 0.6608057472708784 0.7353606352856507
-0.9455305933952332 -0.20474743843078613 -0.253081738948822 -0.9455306013473015 -0.20474744015274587 -0.2530817410772812 0.45837610960006714 0.4343627095222473 0.1800881088347516 0.6634056626502497 0.6448794825890937
-0.8659841418266296 -0.18752224743366241 -0.46358048915863037 -0.8659841430795655 -0.1875222477049761 -0.4635804898293547 0.42177462577819824 0.43995434045791626 0.28709458552880146 0.669848684949593 0.5547062880334392
-0.8408147096633911 -0.39697885513305664 0.36801964044570923 -0.840814691517402 -0.3969788465656827 0.36801963250331676 0.5656630992889404 0.3700586259365082 0.3125277857302936 0.5851749233200025 0.8455949866174879
-0.8965100049972534 -0.42327460646629333 0.1307990550994873 -0.8965100164930716 -0.42327461189388244 0.13079905677670467 0.5230576992034912 0.3608805537223816 0.2521657966970445 0.5733920278457172 0.7768956967743823
-0.8965100049972534 -0.42327460646629333 -0.1307990550994873 -0.8965100164930716 -0.42327461189388244 -0.13079905677670467 0.4769423007965088 0.3608805537223816 0.2521657966970445 0.5733920278457172 0.6905196930385386
-0.8408147096633911 -0.39697885513305664 -0.36801964044570923 -0.840814691517402 -0.3969788465656827 -0.36801963250331676 0.43433690071105957 0.3700586259365082 0.3125277857302936 0.5851749233200025 0.5978094851436216
-0.7649984955787659 -0.595468282699585 0.24534642696380615 -0.7649984790689994 -0.5954682698485241 0.24534642166887785 0.5493939518928528 0.296966552734375 0.3772904043993367 0.4870734826775311 0.8110219658670205
-0.7891174554824829 -0.6142423152923584 0 -0.7891174631989211 -0.6142423212987682 0 0.5 0.28946176171302795 0.35821879970194037 0.4764459933906166 0.7353606352856507
-0.7649984955787659 -0.595468282699585 -0.24534642696380615 -0.7649984790689994 -0.5954682698485241 -0.24534642166887785 0.4506060481071472 0.296966552734375 0.3772904043993367 0.4870734826775311 0.6478904298449467
-0.6511027812957764 -0.7500889897346497 0.11589512228965759 -0.651102780090332 -0.7500889883459433 0.11589512207509066 0.5280356407165527 0.23001061379909515 0.454665979416736 0.3885132125717306 0.7723095996330558
-0.6511027812957764 -0.7500889897346497 -0.11589512228965759 -0.651102780090332 -0.7500889883459433 -0.11589512207509066 0.4719643294811249 0.23001061379909515 0.454665979416736 0.3885132125717306 0.6958195343172199
-0.525731086730957 -0.8506507873535156 0 -0.5257311031389016 -0.8506508139021283 0 0.5 0.17620819807052612 0.5242122469552636 0.302889286216963 0.7353606352856507
-0.7500889897346497 -0.11589512228965759 -0.6511027812957764 -0.7500889883459433 -0.11589512207509066 -0.651102780090332 0.38622474670410156 0.46302634477615356 0.3885132125717306 0.6958195343172199 0.454665979416736
-0.6142423152923584 0 -0.7891174554824829 -0.6142423212987682 0 -0.7891174631989211 0.3552691340446472 0.5 0.4764459933906166 0.7353606352856507 0.35821879970194037
-0.42327460646629333 0.1307990550994873 -0.8965100049972534 -0.42327461189388244 0.13079905677670467 -0.8965100164930716 0.3202046751976013 0.5417542457580566 0.5733920278457172 0.7768956967743823 0.2521657966970445
-0.20474743843078613 0.253081738948822 -0.9455305933952332 -0.20474744015274587 0.2530817410772812 -0.9455306013473015 0.28393977880477905 0.5814441442489624 0.6634056626502497 0.8132592274970031 0.1800881088347516
0 0.3476853668689728 -0.9376112818717957 0 0.3476853616140417 -0.9376112677006998 0.25 0.6130322813987732 0.7353606352856507 0.8399930181576785 0.1937678161377777
-0.595468282699585 -0.24534642696380615 -0.7649984955787659 -0.5954682698485241 -0.24534642166887785 -0.7649984790689994 0.3552691340446472 0.4210982918739319 0.4870734826775311 0.6478904298449467 0.3772904043993367
-0.42327460646629333 -0.1307990550994873 -0.8965100049972534 -0.42327461189388244 -0.13079905677670467 -0.8965100164930716 0.3202046751976013 0.45824572443962097 0.5733920278457172 0.6905196930385386 0.2521657966970445
-0.21163730323314667 -3.6304027333943875e-17 -0.977348268032074 -0.21163730480507287 -3.6304027603590344e-17 -0.9773482752912827 0.28393977880477905 0.5 0.6608057472708784 0.7353606352856507 0.10810296530569194
0 0.12267321348190308 -0.9924471378326416 0 0.12267321110828816 -0.9924471186296937 0.25 0.5391467213630676 0.7353606352856507 0.7743997049063505 0.04820940252361495
-0.39697885513305664 -0.36801964044570923 -0.8408147096633911 -0.3969788465656827 -0.36801963250331676 -0.840814691517402 0.3202046751976013 0.3800359070301056 0.5851749233200025 0.5978094851436216 0.3125277857302936
-0.20474743843078613 -0.253081738948822 -0.9455305933952332 -0.20474744015274587 -0.2530817410772812 -0.9455306013473015 0.28393977880477905 0.4185558259487152 0.6634056626502497 0.6448794825890937 0.1800881088347516
0 -0.12267321348190308 -0.9924471378326416 0 -0.12267321110828816 -0.9924471186296937 0.25 0.46085330843925476 0.7353606352856507 0.6934157633481784 0.04820940252361495
-0.18752224743366241 -0.46358048915863037 -0.8659841418266296 -0.1875222477049761 -0.4635804898293547 -0.8659841430795655 0.28393977880477905 0.34656447172164917 0.669848684949593 0.5547062880334392 0.28709458552880146
0 -0.3476853668689728 -0.9376112818717957 0 -0.3476853616140417 -0.9376112677006998 0.25 0.3869677484035492 0.7353606352856507 0.6064804511680818 0.1937678161377777
0 -0.525731086730957 -0.8506507873535156 0 -0.5257311031389016 -0.8506508139021283 0.25 0.3237918019294739 0.7353606352856507 0.5242122469552636 0.302889286216963
0.18752224743366241 0.46358048915863037 -0.8659841418266296 0.1875222477049761 0.4635804898293547 -0.8659841430795655 0.21606022119522095 0.6534355282783508 0.794034898863713 0.87129173054637 0.28709458552880146
0.33128830790519714 0.5843700766563416 -0.740783154964447 0.331288305896744 0.5843700731135667 -0.7407831504734095 0.1830698847770691 0.6986583471298218 0.8354397238771021 0.9024091473086985 0.3953210197129207
0.4732353985309601 0.6848726868629456 -0.554073691368103 0.4732353996904098 0.684872688540917 -0.5540736927256105 0.13749803602695465 0.7401422262191772 0.8738328572997351 0.9272606335288597 0.50953030813479
0.5843700766563416 0.740783154964447 -0.33128830790519714 0.5843700731135667 0.7407831504734095 -0.331288305896744 0.0820821225643158 0.7655454277992249 0.9024091473086985 0.9407125575730985 0.6133582921546079
0.6511027812957764 0.7500889897346497 -0.11589512228965759 0.651102780090332 0.7500889883459433 -0.11589512207509066 0.028035668656229973 0.7699893712997437 0.9190092064163508 0.9429269016836378 0.6958195343172199
0.39697885513305664 0.36801964044570923 -0.8408147096633911 0.3969788465656827 0.36801963250331676 -0.840814691517402 0.17979532480239868 0.619964063167572 0.8534898871003038 0.8455949866174879 0.3125277857302936
0.554073691368103 0.4732353985309601 -0.6848726868629456 0.5540736927256105 0.4732353996904098 -0.684872688540917 0.14174042642116547 0.6569139957427979 0.8947381029543591 0.8738328572997351 0.4334999209761303
0.6848726868629456 0.554073691368103 -0.4732353985309601 0.684872688540917 0.5540736927256105 -0.4732353996904098 0.0962328165769577 0.6869274377822876 0.9272606335288597 0.8947381029543591 0.5501096476680366
0.7649984955787659 0.595468282699585 -0.24534642696380615 0.7649984790689994 0.5954682698485241 -0.24534642166887785 0.049393944442272186 0.703033447265625 0.9464604254994079 0.9051977603304402 0.6478904298449467
0.595468282699585 0.24534642696380615 -0.7649984955787659 0.5954682698485241 0.24534642166887785 -0.7649984790689994 0.14473088085651398 0.5789017081260681 0.9051977603304402 0.8110219658670205 0.3772904043993367
0.740783154964447 0.33128830790519714 -0.5843700766563416 0.7407831504734095 0.331288305896744 -0.5843700731135667 0.10630082339048386 0.6074832677841187 0.9407125575730985 0.8354397238771021 0.49322101566159043
0.8408147096633911 0.39697885513305664 -0.36801964044570923 0.840814691517402 0.3969788465656827 -0.36801963250331676 0.06566308438777924 0.6299413442611694 0.9641647633401583 0.8534898871003038 0.5978094851436216
0.7500889897346497 0.11589512228965759 -0.6511027812957764 0.7500889883459433 0.11589512207509066 -0.651102780090332 0.11377525329589844 0.5369736552238464 0.9429269016836378 0.7723095996330558 0.454665979416736
0.8659841418266296 0.18752224743366241 -0.46358048915863037 0.8659841430795655 0.1875222477049761 -0.4635804898293547 0.07822535932064056 0.5600456595420837 0.9699479549961775 0.794034898863713 0.5547062880334392
0.8506507873535156 0 -0.525731086730957 0.8506508139021283 0 -0.5257311031389016 0.08810409903526306 0.5 0.9664302557836247 0.7353606352856507 0.5242122469552636
0.6511027812957764 -0.7500889897346497 0.11589512228965759 0.651102780090332 -0.7500889883459433 0.11589512207509066 0.9719643592834473 0.23001061379909515 0.9190092064163508 0.3885132125717306 0.7723095996330558
0.46358048915863037 -0.8659841418266296 0.18752224743366241 0.4635804898293547 -0.8659841430795655 0.1875222477049761 0.9388229250907898 0.16669294238090515 0.87129173054637 0.28709458552880146 0.794034898863713
0.525731086730957 -0.8506507873535156 0 0.5257311031389016 -0.8506508139021283 0 1 0.17620819807052612 0.8874823873314679 0.302889286216963 0.7353606352856507
0.5843700766563416 -0.740783154964447 0.33128830790519714 0.5843700731135667 -0.7407831504734095 0.331288305896744 0.9179179072380066 0.23445460200309753 0.9024091473086985 0.3953210197129207 0.8354397238771021
0.7649984955787659 -0.595468282699585 0.24534642696380615 0.7649984790689994 -0.5954682698485241 0.24534642166887785 0.9506060481071472 0.296966552734375 0.9464604254994079 0.4870734826775311 0.8110219658670205
0.6848726868629456 -0.554073691368103 0.4732353985309601 0.684872688540917 -0.5540736927256105 0.4732353996904098 0.9037671685218811 0.3130725920200348 0.9272606335288597 0.50953030813479 0.8738328572997351
0.8408147096633911 -0.39697885513305664 0.36801964044570923 0.840814691517402 -0.3969788465656827 0.36801963250331676 0.9343369007110596 0.3700586259365082 0.9641647633401583 0.5851749233200025 0.8455949866174879
0.740783154964447 -0.33128830790519714 0.5843700766563416 0.7407831504734095 -0.331288305896744 0.5843700731135667 0.8936991691589355 0.39251673221588135 0.9407125575730985 0.6133582921546079 0.9024091473086985
0.8659841418266296 -0.18752224743366241 0.46358048915863037 0.8659841430795655 -0.1875222477049761 0.4635804898293547 0.9217746257781982 0.43995434045791626 0.9699479549961775 0.669848684949593 0.87129173054637
0.7500889897346497 -0.11589512228965759 0.6511027812957764 0.7500889883459433 -0.11589512207509066 0.651102780090332 0.8862247467041016 0.46302634477615356 0.9429269016836378 0.6958195343172199 0.9190092064163508
0.36801964044570923 -0.8408147096633911 0.39697885513305664 0.36801963250331676 -0.840814691517402 0.3969788465656827 0.8689780235290527 0.18207639455795288 0.8455949866174879 0.3125277857302936 0.8534898871003038
0.4732353985309601 -0.6848726868629456 0.554073691368103 0.4732353996904098 -0.684872688540917 0.5540736927256105 0.8625019788742065 0.25985780358314514 0.8738328572997351 0.4334999209761303 0.8947381029543591
0.554073691368103 -0.4732353985309601 0.6848726868629456 0.5540736927256105 -0.4732353996904098 0.684872688540917 0.8582595586776733 0.34308600425720215 0.8947381029543591 0.5501096476680366 0.9272606335288597
0.595468282699585 -0.24534642696380615 0.7649984955787659 0.5954682698485241 -0.24534642166887785 0.7649984790689994 0.8552691340446472 0.4210982918739319 0.9051977603304402 0.6478904298449467 0.9464604254994079
0.24534642696380615 -0.7649984955787659 0.595468282699585 0.24534642166887785 -0.7649984790689994 0.5954682698485241 0.8122021555900574 0.22273968160152435 0.8110219658670205 0.3772904043993367 0.9051977603304402
0.33128830790519714 -0.5843700766563416 0.740783154964447 0.331288305896744 -0.5843700731135667 0.7407831504734095 0.8169301152229309 0.3013416826725006 0.8354397238771021 0.49322101566159043 0.9407125575730985
0.39697885513305664 -0.36801964044570923 0.8408147096633911 0.3969788465656827 -0.36801963250331676 0.840814691517402 0.8202046751976013 0.3800359070301056 0.8534898871003038 0.5978094851436216 0.9641647633401583
0.11589512228965759 -0.6511027812957764 0.7500889897346497 0.11589512207509066 -0.651102780090332 0.7500889883459433 0.7743978500366211 0.27430668473243713 0.7723095996330558 0.454665979416736 0.9429269016836378
0.18752224743366241 -0.46358048915863037 0.8659841418266296 0.1875222477049761 -0.4635804898293547 0.8659841430795655 0.783939778804779 0.34656447172164917 0.794034898863713 0.5547062880334392 0.9699479549961775
0.3476853668689728 -0.9376112818717957 0 0.3476853616140417 -0.9376112677006998 0 1 0.113032266497612 0.8399930181576785 0.1937678161377777 0.7353606352856507
0.253081738948822 -0.9455305933952332 0.20474743843078613 0.2530817410772812 -0.9455306013473015 0.20474744015274587 0.8917404413223267 0.10554379969835281 0.8132592274970031 0.1800881088347516 0.7991446673546662
0.1307990550994873 -0.8965100049972534 0.42327460646629333 0.13079905677670467 -0.8965100164930716 0.42327461189388244 0.7977001070976257 0.1460941582918167 0.7768956967743823 0.2521657966970445 0.8605763701159198
-7.024429673201132e-17 -0.7891174554824829 0.6142423152923584 -7.02442974188999e-17 -0.7891174631989211 0.6142423212987682 0.75 0.21053825318813324 0.7353606352856507 0.35821879970194037 0.909889436185675
-0.11589512228965759 -0.6511027812957764 0.7500889897346497 -0.11589512207509066 -0.651102780090332 0.7500889883459433 0.7256021499633789 0.27430668473243713 0.6958195343172199 0.454665979416736 0.9429269016836378
0.12267321348190308 -0.9924471378326416 0 0.12267321110828816 -0.9924471186296937 0 1 0.039146702736616135 0.7743997049063505 0.04820940252361495 0.7353606352856507
-1.8152013666971938e-17 -0.977348268032074 0.21163730323314667 -1.8152013801795172e-17 -0.9773482752912827 0.21163730480507287 0.75 0.0678795576095581 0.7353606352856507 0.10810296530569194 0.8011765670972927
-0.1307990550994873 -0.8965100049972534 0.42327460646629333 -0.13079905677670467 -0.8965100164930716 0.42327461189388244 0.7022998929023743 0.1460941582918167 0.6905196930385386 0.2521657966970445 0.8605763701159198
-0.24534642696380615 -0.7649984955787659 0.595468282699585 -0.24534642166887785 -0.7649984790689994 0.5954682698485241 0.6877978444099426 0.22273968160152435 0.6478904298449467 0.3772904043993367 0.9051977603304402
-0.12267321348190308 -0.9924471378326416 0 -0.12267321110828816 -0.9924471186296937 0 0.5 0.039146702736616135 0.6934157633481784 0.04820940252361495 0.7353606352856507
-0.253081738948822 -0.9455305933952332 0.20474743843078613 -0.2530817410772812 -0.9455306013473015 0.20474744015274587 0.6082595586776733 0.10554379969835281 0.6448794825890937 0.1800881088347516 0.7991446673546662
-0.36801964044570923 -0.8408147096633911 0.39697885513305664 -0.36801963250331676 -0.840814691517402 0.3969788465656827 0.6310219764709473 0.18207639455795288 0.5978094851436216 0.3125277857302936 0.8534898871003038
-0.3476853668689728 -0.9376112818717957 0 -0.3476853616140417 -0.9376112677006998 0 0.5 0.113032266497612 0.6064804511680818 0.1937678161377777 0.7353606352856507
-0.46358048915863037 -0.8659841418266296 0.18752224743366241 -0.4635804898293547 -0.8659841430795655 0.1875222477049761 0.5611770749092102 0.16669294238090515 0.5547062880334392 0.28709458552880146 0.794034898863713
0.3476853668689728 -0.9376112818717957 0 0.3476853616140417 -0.9376112677006998 0 0 0.113032266497612 0.8399930181576785 0.1937678161377777 0.7353606352856507
0.46358048915863037 -0.8659841418266296 -0.18752224743366241 0.4635804898293547 -0.8659841430795655 -0.1875222477049761 0.0611770860850811 0.16669294238090515 0.87129173054637 0.28709458552880146 0.669848684949593
0.525731086730957 -0.8506507873535156 0 0.5257311031389016 -0.8506508139021283 0 0 0.17620819807052612 0.8874823873314679 0.302889286216963 0.7353606352856507
0.253081738948822 -0.9455305933952332 -0.20474743843078613 0.2530817410772812 -0.9455306013473015 -0.20474744015274587 0.10825957357883453 0.10554379969835281 0.8132592274970031 0.1800881088347516 0.6634056626502497
0.12267321348190308 -0.9924471378326416 0 0.12267321110828816 -0.9924471186296937 0 0 0.039146702736616135 0.7743997049063505 0.04820940252361495 0.7353606352856507
0 -0.977348268032074 -0.21163730323314667 0 -0.9773482752912827 -0.21163730480507287 0.25 0.0678795576095581 0.7353606352856507 0.10810296530569194 0.6608057472708784
-0.253081738948822 -0.9455305933952332 -0.20474743843078613 -0.2530817410772812 -0.9455306013473015 -0.20474744015274587 0.3917404115200043 0.10554379969835281 0.6448794825890937 0.1800881088347516 0.6634056626502497
-0.46358048915863037 -0.8659841418266296 -0.18752224743366241 -0.4635804898293547 -0.8659841430795655 -0.1875222477049761 0.4388229250907898 0.16669294238090515 0.5547062880334392 0.28709458552880146 0.669848684949593
0.36801964044570923 -0.8408147096633911 -0.39697885513305664 0.36801963250331676 -0.840814691517402 -0.3969788465656827 0.13102197647094727 0.18207639455795288 0.8455949866174879 0.3125277857302936 0.5851749233200025
0.1307990550994873 -0.8965100049972534 -0.42327460646629333 0.13079905677670467 -0.8965100164930716 -0.42327461189388244 0.20229989290237427 0.1460941582918167 0.7768956967743823 0.2521657966970445 0.5733920278457172
-0.1307990550994873 -0.8965100049972534 -0.42327460646629333 -0.13079905677670467 -0.8965100164930716 -0.42327461189388244 0.29770010709762573 0.1460941582918167 0.6905196930385386 0.2521657966970445 0.5733920278457172
-0.36801964044570923 -0.8408147096633911 -0.39697885513305664 -0.36801963250331676 -0.840814691517402 -0.3969788465656827 0.36897802352905273 0.18207639455795288 0.5978094851436216 0.3125277857302936 0.5851749233200025
0.24534642696380615 -0.7649984955787659 -0.595468282699585 0.24534642166887785 -0.7649984790689994 -0.5954682698485241 0.18779785931110382 0.22273968160152435 0.8110219658670205 0.3772904043993367 0.4870734826775311
0 -0.7891174554824829 -0.6142423152923584 0 -0.7891174631989211 -0.6142423212987682 0.25 0.21053825318813324 0.7353606352856507 0.35821879970194037 0.4764459933906166
-0.24534642696380615 -0.7649984955787659 -0.595468282699585 -0.24534642166887785 -0.7649984790689994 -0.5954682698485241 0.3122021555900574 0.22273968160152435 0.6478904298449467 0.3772904043993367 0.4870734826775311
0.11589512228965759 -0.6511027812957764 -0.7500889897346497 0.11589512207509066 -0.651102780090332 -0.7500889883459433 0.2256021350622177 0.27430668473243713 0.7723095996330558 0.454665979416736 0.3885132125717306
-0.11589512228965759 -0.6511027812957764 -0.7500889897346497 -0.11589512207509066 -0.651102780090332 -0.7500889883459433 0.2743978500366211 0.27430668473243713 0.6958195343172199 0.454665979416736 0.3885132125717306
0.6511027812957764 -0.7500889897346497 -0.11589512228965759 0.651102780090332 -0.7500889883459433 -0.11589512207509066 0.028035668656229973 0.23001061379909515 0.9190092064163508 0.3885132125717306 0.6958195343172199
0.5843700766563416 -0.740783154964447 -0.33128830790519714 0.5843700731135667 -0.7407831504734095 -0.331288305896744 0.0820821225643158 0.23445460200309753 0.9024091473086985 0.3953210197129207 0.6133582921546079
0.4732353985309601 -0.6848726868629456 -0.554073691368103 0.4732353996904098 -0.684872688540917 -0.5540736927256105 0.13749803602695465 0.25985780358314514 0.8738328572997351 0.4334999209761303 0.50953030813479
0.33128830790519714 -0.5843700766563416 -0.740783154964447 0.331288305896744 -0.5843700731135667 -0.7407831504734095 0.1830698847770691 0.3013416826725006 0.8354397238771021 0.49322101566159043 0.3953210197129207
0.18752224743366241 -0.46358048915863037 -0.8659841418266296 0.1875222477049761 -0.4635804898293547 -0.8659841430795655 0.21606022119522095 0.34656447172164917 0.794034898863713 0.5547062880334392 0.28709458552880146
0.7649984955787659 -0.595468282699585 -0.24534642696380615 0.7649984790689994 -0.5954682698485241 -0.24534642166887785 0.049393944442272186 0.296966552734375 0.9464604254994079 0.4870734826775311 0.6478904298449467
0.6848726868629456 -0.554073691368103 -0.4732353985309601 0.684872688540917 -0.5540736927256105 -0.4732353996904098 0.0962328165769577 0.3130725920200348 0.9272606335288597 0.50953030813479 0.5501096476680366
0.554073691368103 -0.4732353985309601 -0.6848726868629456 0.5540736927256105 -0.4732353996904098 -0.684872688540917 0.14174042642116547 0.34308600425720215 0.8947381029543591 0.5501096476680366 0.4334999209761303
0.39697885513305664 -0.36801964044570923 -0.8408147096633911 0.3969788465656827 -0.36801963250331676 -0.840814691517402 0.17979532480239868 0.3800359070301056 0.8534898871003038 0.5978094851436216 0.3125277857302936
0.8408147096633911 -0.39697885513305664 -0.36801964044570923 0.840814691517402 -0.3969788465656827 -0.36801963250331676 0.06566308438777924 0.3700586259365082 0.9641647633401583 0.5851749233200025 0.5978094851436216
0.740783154964447 -0.33128830790519714 -0.5843700766563416 0.7407831504734095 -0.331288305896744 -0.5843700731135667 0.10630082339048386 0.39251673221588135 0.9407125575730985 0.6133582921546079 0.49322101566159043
0.595468282699585 -0.24534642696380615 -0.7649984955787659 0.5954682698485241 -0.24534642166887785 -0.7649984790689994 0.14473088085651398 0.4210982918739319 0.9051977603304402 0.6478904298449467 0.3772904043993367
0.8659841418266296 -0.18752224743366241 -0.46358048915863037 0.8659841430795655 -0.1875222477049761 -0.4635804898293547 0.07822535932064056 0.43995434045791626 0.9699479549961775 0.669848684949593 0.5547062880334392
0.7500889897346497 -0.11589512228965759 -0.6511027812957764 0.7500889883459433 -0.11589512207509066 -0.651102780090332 0.11377525329589844 0.46302634477615356 0.9429269016836378 0.6958195343172199 0.454665979416736
0.6511027812957764 -0.7500889897346497 -0.11589512228965759 0.651102780090332 -0.7500889883459433 -0.11589512207509066 1.0280356407165527 0.23001061379909515 0.9190092064163508 0.3885132125717306 0.6958195343172199
0.7891174554824829 -0.6142423152923584 0 0.7891174631989211 -0.6142423212987682 0 1 0.28946176171302795 0.9521399099347078 0.4764459933906166 0.7353606352856507
0.7891174554824829 -0.6142423152923584 0 0.7891174631989211 -0.6142423212987682 0 0 0.28946176171302795 0.9521399099347078 0.4764459933906166 0.7353606352856507
0.8965100049972534 -0.42327460646629333 -0.1307990550994873 0.8965100164930716 -0.42327461189388244 -0.13079905677670467 0.023057708516716957 0.3608805537223816 0.9769011334914285 0.5733920278457172 0.6905196930385386
0.9455305933952332 -0.20474743843078613 -0.253081738948822 0.9455306013473015 -0.20474744015274587 -0.2530817410772812 0.041623882949352264 0.4343627095222473 0.9879317937617073 0.6634056626502497 0.6448794825890937
0.9376112818717957 0 -0.3476853668689728 0.9376112677006998 0 -0.3476853616140417 0.056516133248806 0.5 0.9861608552418001 0.7353606352856507 0.6064804511680818
0.8965100049972534 -0.42327460646629333 0.1307990550994873 0.8965100164930716 -0.42327461189388244 0.13079905677670467 0.9769423007965088 0.3608805537223816 0.9769011334914285 0.5733920278457172 0.7768956967743823
0.8965100049972534 -0.42327460646629333 -0.1307990550994873 0.8965100164930716 -0.42327461189388244 -0.13079905677670467 1.0230576992034912 0.3608805537223816 0.9769011334914285 0.5733920278457172 0.6905196930385386
0.977348268032074 -0.21163730323314667 3.6304027333943875e-17 0.9773482752912827 -0.21163730480507287 3.6304027603590344e-17 1 0.4321204423904419 0.9950048855652568 0.6608057472708784 0.7353606352856507
0.977348268032074 -0.21163730323314667 3.6304027333943875e-17 0.9773482752912827 -0.21163730480507287 3.6304027603590344e-17 0 0.4321204423904419 0.9950048855652568 0.6608057472708784 0.7353606352856507
0.9924471378326416 0 -0.12267321348190308 0.9924471186296937 0 -0.12267321110828816 0.019573351368308067 0.5 0.9983381382681858 0.7353606352856507 0.6934157633481784
0.9455305933952332 -0.20474743843078613 0.253081738948822 0.9455306013473015 -0.20474744015274587 0.2530817410772812 0.9583761096000671 0.4343627095222473 0.9879317937617073 0.6634056626502497 0.8132592274970031
0.9924471378326416 0 0.12267321348190308 0.9924471186296937 0 0.12267321110828816 0.9804266691207886 0.5 0.9983381382681858 0.7353606352856507 0.7743997049063505
0.9924471378326416 0 -0.12267321348190308 0.9924471186296937 0 -0.12267321110828816 1.0195733308792114 0.5 0.9983381382681858 0.7353606352856507 0.6934157633481784
0.9376112818717957 0 0.3476853668689728 0.9376112677006998 0 0.3476853616140417 0.9434838891029358 0.5 0.9861608552418001 0.7353606352856507 0.8399930181576785
0.20474743843078613 -0.253081738948822 0.9455305933952332 0.20474744015274587 -0.2530817410772812 0.9455306013473015 0.783939778804779 0.4185558259487152 0.7991446673546662 0.6448794825890937 0.9879317937617073
0.42327460646629333 -0.1307990550994873 0.8965100049972534 0.42327461189388244 -0.13079905677670467 0.8965100164930716 0.8202046751976013 0.45824572443962097 0.8605763701159198 0.6905196930385386 0.9769011334914285
0.6142423152923584 7.024429673201132e-17 0.7891174554824829 0.6142423212987682 7.02442974188999e-17 0.7891174631989211 0.8552691340446472 0.5 0.909889436185675 0.7353606352856507 0.9521399099347078
0.21163730323314667 1.8152013666971938e-17 0.977348268032074 0.21163730480507287 1.8152013801795172e-17 0.9773482752912827 0.783939778804779 0.5 0.8011765670972927 0.7353606352856507 0.9950048855652568
0.42327460646629333 0.1307990550994873 0.8965100049972534 0.42327461189388244 0.13079905677670467 0.8965100164930716 0.8202046751976013 0.5417542457580566 0.8605763701159198 0.7768956967743823 0.9769011334914285
0.20474743843078613 0.253081738948822 0.9455305933952332 0.20474744015274587 0.2530817410772812 0.9455306013473015 0.783939778804779 0.5814441442489624 0.7991446673546662 0.8132592274970031 0.9879317937617073
-0.5843700766563416 -0.740783154964447 0.33128830790519714 -0.5843700731135667 -0.7407831504734095 0.331288305896744 0.5820820927619934 0.23445460200309753 0.49322101566159043 0.3953210197129207 0.8354397238771021
-0.4732353985309601 -0.6848726868629456 0.554073691368103 -0.4732353996904098 -0.684872688540917 0.5540736927256105 0.6374980211257935 0.25985780358314514 0.5501096476680366 0.4334999209761303 0.8947381029543591
-0.33128830790519714 -0.5843700766563416 0.740783154964447 -0.331288305896744 -0.5843700731135667 0.7407831504734095 0.6830698847770691 0.3013416826725006 0.6133582921546079 0.49322101566159043 0.9407125575730985
-0.6848726868629456 -0.554073691368103 0.4732353985309601 -0.684872688540917 -0.5540736927256105 0.4732353996904098 0.5962328314781189 0.3130725920200348 0.4334999209761303 0.50953030813479 0.8738328572997351
-0.554073691368103 -0.4732353985309601 0.6848726868629456 -0.5540736927256105 -0.4732353996904098 0.684872688540917 0.6417404413223267 0.34308600425720215 0.50953030813479 0.5501096476680366 0.9272606335288597
-0.740783154964447 -0.33128830790519714 0.5843700766563416 -0.7407831504734095 -0.331288305896744 0.5843700731135667 0.6063008308410645 0.39251673221588135 0.3953210197129207 0.6133582921546079 0.9024091473086985
-0.33128830790519714 -0.5843700766563416 -0.740783154964447 -0.331288305896744 -0.5843700731135667 -0.7407831504734095 0.3169301152229309 0.3013416826725006 0.6133582921546079 0.49322101566159043 0.3953210197129207
-0.4732353985309601 -0.6848726868629456 -0.554073691368103 -0.4732353996904098 -0.684872688540917 -0.5540736927256105 0.36250194907188416 0.25985780358314514 0.5501096476680366 0.4334999209761303 0.50953030813479
-0.5843700766563416 -0.740783154964447 -0.33128830790519714 -0.5843700731135667 -0.7407831504734095 -0.331288305896744 0.4179178774356842 0.23445460200309753 0.49322101566159043 0.3953210197129207 0.6133582921546079
-0.554073691368103 -0.4732353985309601 -0.6848726868629456 -0.5540736927256105 -0.4732353996904098 -0.684872688540917 0.3582595884799957 0.34308600425720215 0.50953030813479 0.5501096476680366 0.4334999209761303
-0.6848726868629456 -0.554073691368103 -0.4732353985309601 -0.684872688540917 -0.5540736927256105 -0.4732353996904098 0.4037671685218811 0.3130725920200348 0.4334999209761303 0.50953030813479 0.5501096476680366
-0.740783154964447 -0.33128830790519714 -0.5843700766563416 -0.7407831504734095 -0.331288305896744 -0.5843700731135667 0.39369916915893555 0.39251673221588135 0.3953210197129207 0.6133582921546079 0.49322101566159043
0.6142423152923584 0 -0.7891174554824829 0.6142423212987682 0 -0.7891174631989211 0.14473088085651398 0.5 0.909889436185675 0.7353606352856507 0.35821879970194037
0.42327460646629333 -0.1307990550994873 -0.8965100049972534 0.42327461189388244 -0.13079905677670467 -0.8965100164930716 0.17979532480239868 0.45824572443962097 0.8605763701159198 0.6905196930385386 0.2521657966970445
0.20474743843078613 -0.253081738948822 -0.9455305933952332 0.20474744015274587 -0.2530817410772812 -0.9455306013473015 0.21606022119522095 0.4185558259487152 0.7991446673546662 0.6448794825890937 0.1800881088347516
0.42327460646629333 0.1307990550994873 -0.8965100049972534 0.42327461189388244 0.13079905677670467 -0.8965100164930716 0.17979532480239868 0.5417542457580566 0.8605763701159198 0.7768956967743823 0.2521657966970445
0.21163730323314667 3.6304027333943875e-17 -0.977348268032074 0.21163730480507287 3.6304027603590344e-17 -0.9773482752912827 0.21606022119522095 0.5 0.8011765670972927 0.7353606352856507 0.10810296530569194
0.20474743843078613 0.253081738948822 -0.9455305933952332 0.20474744015274587 0.2530817410772812 -0.9455306013473015 0.21606022119522095 0.5814441442489624 0.7991446673546662 0.8132592274970031 0.1800881088347516
0.9455305933952332 0.20474743843078613 0.253081738948822 0.9455306013473015 0.20474744015274587 0.2530817410772812 0.9583761096000671 0.5656372904777527 0.9879317937617073 0.7991446673546662 0.8132592274970031
0.977348268032074 0.21163730323314667 0 0.9773482752912827 0.21163730480507287 0 1 0.5678795576095581 0.9950048855652568 0.8011765670972927 0.7353606352856507
0.9455305933952332 0.20474743843078613 -0.253081738948822 0.9455306013473015 0.20474744015274587 -0.2530817410772812 0.041623882949352264 0.5656372904777527 0.9879317937617073 0.7991446673546662 0.6448794825890937
0.977348268032074 0.21163730323314667 0 0.9773482752912827 0.21163730480507287 0 0 0.5678795576095581 0.9950048855652568 0.8011765670972927 0.7353606352856507
0.8965100049972534 0.42327460646629333 0.1307990550994873 0.8965100164930716 0.42327461189388244 0.13079905677670467 0.9769423007965088 0.6391194462776184 0.9769011334914285 0.8605763701159198 0.7768956967743823
0.8965100049972534 0.42327460646629333 -0.1307990550994873 0.8965100164930716 0.42327461189388244 -0.13079905677670467 1.0230576992034912 0.6391194462776184 0.9769011334914285 0.8605763701159198 0.6905196930385386
0.8965100049972534 0.42327460646629333 -0.1307990550994873 0.8965100164930716 0.42327461189388244 -0.13079905677670467 0.023057708516716957 0.6391194462776184 0.9769011334914285 0.8605763701159198 0.6905196930385386
0.7891174554824829 0.6142423152923584 0 0.7891174631989211 0.6142423212987682 0 1 0.7105382680892944 0.9521399099347078 0.909889436185675 0.7353606352856507
0.7891174554824829 0.6142423152923584 0 0.7891174631989211 0.6142423212987682 0 0 0.7105382680892944 0.9521399099347078 0.909889436185675 0.7353606352856507
0.6511027812957764 0.7500889897346497 -0.11589512228965759 0.651102780090332 0.7500889883459433 -0.11589512207509066 1.0280356407165527 0.7699893712997437 0.9190092064163508 0.9429269016836378 0.6958195343172199
3 0 1 2
3 0 3 1
3 4 3 0
3 4 5 3
3 6 5 4
3 6 7 5
3 8 7 6
3 8 9 7
3 10 9 8
3 3 11 1
3 3 12 11
3 5 12 3
3 5 13 12
3 7 13 5
3 7 14 13
3 9 14 7
3 12 15 11
3 12 16 15
3 13 16 12
3 13 17 16
3 14 17 13
3 16 18 15
3 16 19 18
3 17 19 16
3 19 20 18
3 1 21 2
3 1 22 21
3 11 22 1
3 11 23 22
3 15 23 11
3 15 24 23
3 18 24 15
3 18 25 24
3 20 25 18
3 22 26 21
3 22 27 26
3 23 27 22
3 23 28 27
3 24 28 23
3 24 29 28
3 25 29 24
3 27 30 26
3 27 31 30
3 28 31 27
3 28 32 31
3 29 32 28
3 31 33 30
3 31 34 33
3 32 34 31
3 34 35 33
3 21 36 2
3 21 37 36
3 26 37 21
3 26 38 37
3 39 38 26
3 39 40 38
3 41 40 39
3 41 42 40
3 43 42 41
3 37 44 36
3 37 45 44
3 38 45 37
3 38 46 45
3 40 46 38
3 40 47 46
3 42 47 40
3 45 48 44
3 45 49 48
3 46 49 45
3 46 50 49
3 47 50 46
3 49 51 48
3 49 52 51
3 50 52 49
3 52 53 51
3 36 54 2
3 36 55 54
3 44 55 36
3 44 56 55
3 48 56 44
3 48 57 56
3 51 57 48
3 51 58 57
3 53 58 51
3 55 59 54
3 55 60 59
3 56 60 55
3 56 61 60
3 57 61 56
3 57 62 61
3 58 62 57
3 60 63 59
3 60 64 63
3 61 64 60
3 61 65 64
3 62 65 61
3 64 66 63
3 64 67 66
3 65 67 64
3 67 68 66
3 54 0 2
3 54 69 0
3 59 69 54
3 59 70 69
3 63 70 59
3 63 71 70
3 66 71 63
3 66 72 71
3 68 72 66
3 69 4 0
3 69 73 4
3 70 73 69
3 70 74 73
3 71 74 70
3 71 75 74
3 72 75 71
3 73 6 4
3 73 76 6
3 74 76 73
3 74 77 76
3 75 77 74
3 76 8 6
3 76 78 8
3 77 78 76
3 78 10 8
3 34 79 35
3 34 80 79
3 32 80 34
3 32 81 80
3 29 81 32
3 29 82 81
3 25 82 29
3 25 83 82
3 20 83 25
3 80 84 79
3 80 85 84
3 81 85 80
3 81 86 85
3 82 86 81
3 82 87 86
3 83 87 82
3 85 88 84
3 85 89 88
3 86 89 85
3 86 90 89
3 87 90 86
3 89 91 88
3 89 92 91
3 90 92 89
3 92 93 91
3 19 94 20
3 19 95 94
3 17 95 19
3 17 96 95
3 14 96 17
3 14 97 96
3 9 97 14
3 9 98 97
3 10 98 9
3 95 99 94
3 95 100 99
3 96 100 95
3 96 101 100
3 97 101 96
3 97 102 101
3 98 102 97
3 100 103 99
3 100 104 103
3 101 104 100
3 101 105 104
3 102 105 101
3 104 106 103
3 104 107 106
3 105 107 104
3 107 108 106
3 78 109 10
3 78 110 109
3 77 110 78
3 77 111 110
3 75 111 77
3 75 112 111
3 72 112 75
3 72 113 112
3 68 113 72
3 110 114 109
3 110 115 114
3 111 115 110
3 111 116 115
3 112 116 111
3 112 117 116
3 113 117 112
3 115 118 114
3 115 119 118
3 116 119 115
3 116 120 119
3 117 120 116
3 119 121 118
3 119 122 121
3 120 122 119
3 122 123 121
3 67 124 68
3 67 125 124
3 65 125 67
3 65 126 125
3 62 126 65
3 62 127 126
3 58 127 62
3 58 128 127
3 53 128 58
3 125 129 124
3 125 130 129
3 126 130 125
3 126 131 130
3 127 131 126
3 127 132 131
3 128 132 127
3 130 133 129
3 130 134 133
3 131 134 130
3 131 135 134
3 132 135 131
3 134 136 133
3 134 137 136
3 135 137 134
3 137 138 136
3 52 139 53
3 52 140 139
3 50 140 52
3 50 141 140
3 47 141 50
3 47 142 141
3 42 142 47
3 42 143 142
3 43 143 42
3 140 144 139
3 140 145 144
3 141 145 140
3 141 146 145
3 142 146 141
3 142 147 146
3 143 147 142
3 145 148 144
3 145 149 148
3 146 149 145
3 146 150 149
3 147 150 146
3 149 151 148
3 149 152 151
3 150 152 149
3 152 153 151
3 154 155 156
3 154 157 155
3 158 157 154
3 158 159 157
3 160 159 158
3 160 161 159
3 162 161 160
3 162 163 161
3 93 163 162
3 157 164 155
3 157 165 164
3 159 165 157
3 159 166 165
3 161 166 159
3 161 167 166
3 163 167 161
3 165 168 164
3 165 169 168
3 166 169 165
3 166 170 169
3 167 170 166
3 169 171 168
3 169 172 171
3 170 172 169
3 172 108 171
3 155 173 156
3 155 174 173
3 164 174 155
3 164 175 174
3 168 175 164
3 168 176 175
3 171 176 168
3 171 177 176
3 108 177 171
3 174 178 173
3 174 179 178
3 175 179 174
3 175 180 179
3 176 180 175
3 176 181 180
3 177 181 176
3 179 182 178
3 179 183 182
3 180 183 179
3 180 184 183
3 181 184 180
3 183 185 182
3 183 186 185
3 184 186 183
3 186 123 185
3 187 188 189
3 187 190 188
3 191 190 187
3 191 192 190
3 182 192 191
3 182 193 192
3 185 193 182
3 185 194 193
3 123 194 185
3 190 195 188
3 190 196 195
3 192 196 190
3 192 197 196
3 193 197 192
3 193 198 197
3 194 198 193
3 196 199 195
3 196 200 199
3 197 200 196
3 197 201 200
3 198 201 197
3 200 202 199
3 200 203 202
3 201 203 200
3 203 138 202
3 188 204 189
3 188 205 204
3 195 205 188
3 195 206 205
3 199 206 195
3 199 207 206
3 202 207 199
3 202 208 207
3 138 208 202
3 205 209 204
3 205 210 209
3 206 210 205
3 206 211 210
3 207 211 206
3 207 212 211
3 208 212 207
3 210 213 209
3 210 214 213
3 211 214 210
3 211 215 214
3 212 215 211
3 214 216 213
3 214 217 216
3 215 217 214
3 217 153 216
3 218 154 156
3 218 219 154
3 209 220 204
3 209 221 220
3 213 221 209
3 213 222 221
3 216 222 213
3 216 223 222
3 153 223 216
3 219 158 154
3 219 224 158
3 225 224 219
3 225 226 224
3 222 227 221
3 222 228 227
3 223 228 222
3 224 160 158
3 224 229 160
3 226 229 224
3 226 230 229
3 231 230 226
3 229 162 160
3 229 232 162
3 230 232 229
3 232 93 162
3 172 106 108
3 172 233 106
3 170 233 172
3 170 234 233
3 167 234 170
3 167 235 234
3 163 235 167
3 163 92 235
3 93 92 163
3 233 103 106
3 233 236 103
3 234 236 233
3 234 237 236
3 235 237 234
3 235 90 237
3 92 90 235
3 236 99 103
3 236 238 99
3 237 238 236
3 237 87 238
3 90 87 237
3 238 94 99
3 238 83 94
3 87 83 238
3 83 20 94
3 186 121 123
3 186 239 121
3 184 239 186
3 184 240 239
3 181 240 184
3 181 241 240
3 177 241 181
3 177 107 241
3 108 107 177
3 239 118 121
3 239 242 118
3 240 242 239
3 240 243 242
3 241 243 240
3 241 105 243
3 107 105 241
3 242 114 118
3 242 244 114
3 243 244 242
3 243 102 244
3 105 102 243
3 244 109 114
3 244 98 109
3 102 98 244
3 98 10 109
3 203 136 138
3 203 245 136
3 201 245 203
3 201 246 245
3 198 246 201
3 198 247 246
3 194 247 198
3 194 122 247
3 123 122 194
3 245 133 136
3 245 248 133
3 246 248 245
3 246 249 248
3 247 249 246
3 247 120 249
3 122 120 247
3 248 129 133
3 248 250 129
3 249 250 248
3 249 117 250
3 120 117 249
3 250 124 129
3 250 113 124
3 117 113 250
3 113 68 124
3 217 151 153
3 217 251 151
3 215 251 217
3 215 252 251
3 212 252 215
3 212 253 252
3 208 253 212
3 208 137 253
3 138 137 208
3 251 148 151
3 251 254 148
3 252 254 251
3 252 255 254
3 253 255 252
3 253 135 255
3 137 135 253
3 254 144 148
3 254 256 144
3 255 256 254
3 255 132 256
3 135 132 255
3 256 139 144
3 256 128 139
3 132 128 256
3 128 53 139
3 232 91 93
3 232 257 91
3 230 257 232
3 230 258 257
3 231 258 230
3 228 259 260
3 223 259 228
3 223 152 259
3 153 152 223
3 257 88 91
3 257 261 88
3 258 261 257
3 258 262 261
3 259 263 260
3 259 150 263
3 152 150 259
3 261 84 88
3 261 264 84
3 262 264 261
3 263 147 265
3 150 147 263
3 264 79 84
3 264 266 79
3 147 143 265
3 266 35 79

